G04*
G04 #@! TF.GenerationSoftware,Altium Limited,Altium Designer,22.5.1 (42)*
G04*
G04 Layer_Color=32768*
%FSLAX42Y42*%
%MOMM*%
G71*
G04*
G04 #@! TF.SameCoordinates,8F982C1A-2937-4736-9447-CD7387795ED9*
G04*
G04*
G04 #@! TF.FilePolarity,Positive*
G04*
G01*
G75*
%ADD13C,0.15*%
%ADD56C,0.12*%
D13*
X4354Y4395D02*
X4379Y4370D01*
X4429D01*
X4454Y4395D01*
Y4495D01*
X4429Y4520D01*
X4379D01*
X4354Y4495D01*
Y4445D01*
X4404D01*
X4304Y4520D02*
Y4370D01*
X4205Y4520D01*
Y4370D01*
X4155D02*
Y4520D01*
X4080D01*
X4055Y4495D01*
Y4395D01*
X4080Y4370D01*
X4155D01*
D56*
X3092Y3415D02*
Y3316D01*
X3142D01*
X3158Y3332D01*
Y3399D01*
X3142Y3415D01*
X3092D01*
X3258Y3316D02*
X3192D01*
X3258Y3382D01*
Y3399D01*
X3242Y3415D01*
X3208D01*
X3192Y3399D01*
X1377Y3415D02*
Y3316D01*
X1427D01*
X1444Y3332D01*
Y3399D01*
X1427Y3415D01*
X1377D01*
X1477Y3399D02*
X1494Y3415D01*
X1527D01*
X1544Y3399D01*
Y3382D01*
X1527Y3365D01*
X1510D01*
X1527D01*
X1544Y3349D01*
Y3332D01*
X1527Y3316D01*
X1494D01*
X1477Y3332D01*
X4886Y3415D02*
Y3316D01*
X4936D01*
X4953Y3332D01*
Y3399D01*
X4936Y3415D01*
X4886D01*
X4986Y3316D02*
X5020D01*
X5003D01*
Y3415D01*
X4986Y3399D01*
M02*
