M48
;Layer_Color=9474304
;FILE_FORMAT=4:2
METRIC,LZ
;TYPE=PLATED
T1F00S00C0.51
T2F00S00C0.74
T3F00S00C0.76
T4F00S00C0.90
T5F00S00C1.00
T7F00S00C1.10
T8F00S00C1.14
T9F00S00C1.20
T10F00S00C3.20
%
T01
X001842Y000864
Y001181
T02
X005397Y003365
X00616
X004381
X003619
X002603
X001842
X002921Y002476
Y001715
T03
X002794Y000254
X003048
X003302
X003556
X00381
X004064
X004318
X004572
X00508
X005334
X005588
X005842
X006096
X00635
X004826Y00508
X004572
X004166
X003912
X003658
X003404
X00315
X002896
X002642
X002388
X002134
X00188
X00508
X005334
X005588
X005842
X006096
X00635
T04
X006364Y002535
X006618
Y002789
X006364
Y003043
X006618
X004071Y001968
X003422
T05
X00508Y003365
X004826
X003302
X003048
X001588
X001334
T07
X00489Y004445
X005144
X004635
X004381
X004128
X003874
X003619
X003365
T08
X000952Y004381
Y004635
X000381
Y004381
Y00489
X000952
T09
X006287Y001524
Y002024
X000572Y001782
Y002282
Y002988
Y003488
T10
X001397Y000254
X006604Y000762
Y003556
X001524Y00508
M30
