G04*
G04 #@! TF.GenerationSoftware,Altium Limited,Altium Designer,22.5.1 (42)*
G04*
G04 Layer_Color=16711935*
%FSLAX42Y42*%
%MOMM*%
G71*
G04*
G04 #@! TF.SameCoordinates,8F982C1A-2937-4736-9447-CD7387795ED9*
G04*
G04*
G04 #@! TF.FilePolarity,Positive*
G04*
G01*
G75*
%ADD10C,0.20*%
%ADD11C,0.15*%
%ADD15C,0.13*%
%ADD16C,0.10*%
%ADD54C,0.00*%
%ADD55C,0.03*%
D10*
X6297Y1139D02*
G03*
X6297Y1139I-10J0D01*
G01*
X1129Y952D02*
G03*
X1129Y952I-10J0D01*
G01*
X582Y3874D02*
G03*
X582Y3874I-10J0D01*
G01*
Y2667D02*
G03*
X582Y2667I-10J0D01*
G01*
D11*
X381Y4864D02*
Y4915D01*
X356Y4890D02*
X406D01*
X927D02*
X978D01*
X952Y4864D02*
Y4915D01*
D15*
X4347Y1968D02*
G03*
X4347Y1968I-600J0D01*
G01*
X6697Y1214D02*
Y1274D01*
X5876Y1214D02*
Y1274D01*
Y1214D02*
X6697D01*
X5876Y1274D02*
X6697D01*
Y2274D01*
X5876D02*
X6697D01*
X5876Y1274D02*
Y2274D01*
X982Y2738D02*
Y3738D01*
X161Y2738D02*
X982D01*
X161D02*
Y3738D01*
X982D01*
X161Y3798D02*
X982D01*
Y3738D02*
Y3798D01*
X161Y3738D02*
Y3798D01*
Y2532D02*
Y2592D01*
X982Y2532D02*
Y2592D01*
X161D02*
X982D01*
X161Y2532D02*
X982D01*
X161Y1532D02*
Y2532D01*
Y1532D02*
X982D01*
Y2532D01*
X4254Y2413D02*
Y2540D01*
X4191Y2476D02*
X4318D01*
X3238Y2413D02*
Y2540D01*
D16*
X-461Y1403D02*
X969D01*
Y502D02*
Y1403D01*
X-461Y502D02*
X969D01*
X-461D02*
Y1403D01*
D54*
X401Y5105D02*
G03*
X401Y5105I-20J0D01*
G01*
X973D02*
G03*
X973Y5105I-20J0D01*
G01*
D55*
X194Y4115D02*
Y5156D01*
Y4115D02*
X654D01*
Y5156D01*
X194D02*
X654D01*
X766D02*
X1226D01*
Y4115D02*
Y5156D01*
X766Y4115D02*
X1226D01*
X766D02*
Y5156D01*
X2921Y2276D02*
Y2476D01*
Y1715D02*
Y1915D01*
X2828D02*
Y2276D01*
Y1915D02*
X3014D01*
Y2276D01*
X2828D02*
X3014D01*
X2403Y3365D02*
X2603D01*
X1842D02*
X2042D01*
Y3458D02*
X2403D01*
X2042Y3273D02*
Y3458D01*
Y3273D02*
X2403D01*
Y3458D01*
X5959Y3365D02*
X6160D01*
X5397D02*
X5598D01*
Y3458D02*
X5959D01*
X5598Y3273D02*
Y3458D01*
Y3273D02*
X5959D01*
Y3458D01*
X4181Y3365D02*
X4381D01*
X3619D02*
X3820D01*
Y3458D02*
X4181D01*
X3820Y3273D02*
Y3458D01*
Y3273D02*
X4181D01*
Y3458D01*
M02*
