G04*
G04 #@! TF.GenerationSoftware,Altium Limited,Altium Designer,22.5.1 (42)*
G04*
G04 Layer_Physical_Order=1*
G04 Layer_Color=255*
%FSLAX42Y42*%
%MOMM*%
G71*
G04*
G04 #@! TF.SameCoordinates,8F982C1A-2937-4736-9447-CD7387795ED9*
G04*
G04*
G04 #@! TF.FilePolarity,Positive*
G04*
G01*
G75*
%ADD24R,1.24X1.24*%
%ADD25C,1.24*%
%ADD26R,1.24X1.24*%
%ADD34C,1.80*%
%ADD35R,1.80X1.80*%
%ADD36O,2.00X4.00*%
%ADD37O,4.00X2.00*%
%ADD38O,2.20X4.40*%
%ADD39R,1.65X1.65*%
%ADD40C,1.65*%
%ADD41C,1.60*%
G04:AMPARAMS|DCode=42|XSize=1.6mm|YSize=1.6mm|CornerRadius=0.4mm|HoleSize=0mm|Usage=FLASHONLY|Rotation=180.000|XOffset=0mm|YOffset=0mm|HoleType=Round|Shape=RoundedRectangle|*
%AMROUNDEDRECTD42*
21,1,1.60,0.80,0,0,180.0*
21,1,0.80,1.60,0,0,180.0*
1,1,0.80,-0.40,0.40*
1,1,0.80,0.40,0.40*
1,1,0.80,0.40,-0.40*
1,1,0.80,-0.40,-0.40*
%
%ADD42ROUNDEDRECTD42*%
%ADD43C,1.50*%
%ADD44O,1.52X0.76*%
%ADD45C,1.41*%
%ADD46C,1.78*%
%ADD47C,1.52*%
%ADD48R,1.52X1.52*%
%ADD49C,3.20*%
D24*
X2921Y2476D02*
D03*
D25*
Y1715D02*
D03*
X1842Y3365D02*
D03*
X5397D02*
D03*
X3619D02*
D03*
D26*
X2603D02*
D03*
X6160D02*
D03*
X4381D02*
D03*
D34*
X6287Y2024D02*
D03*
X572Y2988D02*
D03*
Y1782D02*
D03*
D35*
X6287Y1524D02*
D03*
X572Y3488D02*
D03*
Y2282D02*
D03*
D36*
X279Y952D02*
D03*
D37*
X619Y473D02*
D03*
D38*
X909Y952D02*
D03*
D39*
X381Y4890D02*
D03*
X952D02*
D03*
D40*
X381Y4635D02*
D03*
Y4381D02*
D03*
X952D02*
D03*
Y4635D02*
D03*
D41*
X3365Y4445D02*
D03*
X3619D02*
D03*
X4128D02*
D03*
X4635D02*
D03*
X4890D02*
D03*
X4381D02*
D03*
X3874D02*
D03*
D42*
X5144D02*
D03*
D43*
X3302Y3365D02*
D03*
X3048D02*
D03*
X1588D02*
D03*
X1334D02*
D03*
X5080D02*
D03*
X4826D02*
D03*
D44*
X1842Y864D02*
D03*
Y1181D02*
D03*
D45*
X4071Y1968D02*
D03*
X3422D02*
D03*
D46*
X6618Y2535D02*
D03*
X6364D02*
D03*
X6618Y2789D02*
D03*
X6364D02*
D03*
X6618Y3043D02*
D03*
X6364D02*
D03*
D47*
X4064Y254D02*
D03*
X4318D02*
D03*
X2794D02*
D03*
X3048D02*
D03*
X3302D02*
D03*
X3556D02*
D03*
X3810D02*
D03*
X5842Y5080D02*
D03*
X6096D02*
D03*
X4572D02*
D03*
X4826D02*
D03*
X5080D02*
D03*
X5334D02*
D03*
X5588D02*
D03*
X1880D02*
D03*
X2134D02*
D03*
X2388D02*
D03*
X2642D02*
D03*
X2896D02*
D03*
X3150D02*
D03*
X3404D02*
D03*
X3658D02*
D03*
X3912D02*
D03*
X6350Y254D02*
D03*
X6096D02*
D03*
X5842D02*
D03*
X5588D02*
D03*
X5334D02*
D03*
D48*
X4572D02*
D03*
X6350Y5080D02*
D03*
X4166D02*
D03*
X5080Y254D02*
D03*
D49*
X1524Y5080D02*
D03*
X1397Y254D02*
D03*
X6604Y3556D02*
D03*
Y762D02*
D03*
M02*
