G04*
G04 #@! TF.GenerationSoftware,Altium Limited,Altium Designer,22.5.1 (42)*
G04*
G04 Layer_Color=32768*
%FSLAX42Y42*%
%MOMM*%
G71*
G04*
G04 #@! TF.SameCoordinates,8F982C1A-2937-4736-9447-CD7387795ED9*
G04*
G04*
G04 #@! TF.FilePolarity,Positive*
G04*
G01*
G75*
%ADD11C,0.15*%
%ADD53C,0.05*%
G36*
X169Y4089D02*
Y5182D01*
X679D01*
Y4089D01*
X169D01*
D02*
G37*
G36*
X740D02*
Y5182D01*
X1251D01*
Y4089D01*
X740D01*
D02*
G37*
G36*
X2428Y3453D02*
X2691D01*
Y3278D01*
X2428D01*
Y3247D01*
X2017D01*
Y3278D01*
X1754D01*
Y3453D01*
X2017D01*
Y3484D01*
X2428D01*
Y3453D01*
D02*
G37*
G36*
X2833Y2301D02*
Y2564D01*
X3009D01*
Y2301D01*
X3039D01*
Y1890D01*
X3009D01*
Y1627D01*
X2833D01*
Y1890D01*
X2803D01*
Y2301D01*
X2833D01*
D02*
G37*
G36*
X4206Y3453D02*
X4469D01*
Y3278D01*
X4206D01*
Y3247D01*
X3795D01*
Y3278D01*
X3532D01*
Y3453D01*
X3795D01*
Y3484D01*
X4206D01*
Y3453D01*
D02*
G37*
G36*
X5984D02*
X6247D01*
Y3278D01*
X5984D01*
Y3247D01*
X5573D01*
Y3278D01*
X5310D01*
Y3453D01*
X5573D01*
Y3484D01*
X5984D01*
Y3453D01*
D02*
G37*
D11*
X169Y5182D02*
X679D01*
Y4089D02*
Y5182D01*
X169Y4089D02*
X679D01*
X169D02*
Y5182D01*
X740Y4089D02*
Y5182D01*
Y4089D02*
X1251D01*
Y5182D01*
X740D02*
X1251D01*
X2833Y2564D02*
X3009D01*
Y2301D02*
Y2564D01*
Y1627D02*
Y1890D01*
X2833Y1627D02*
X3009D01*
X2833D02*
Y1890D01*
Y2301D02*
Y2564D01*
X2803Y2301D02*
X2833D01*
X3009D02*
X3039D01*
Y1890D02*
Y2301D01*
X3009Y1890D02*
X3039D01*
X2803D02*
X2833D01*
X2803D02*
Y2301D01*
X2691Y3278D02*
Y3453D01*
X2428Y3278D02*
X2691D01*
X1754D02*
X2017D01*
X1754D02*
Y3453D01*
X2017D01*
X2428D02*
X2691D01*
X2428D02*
Y3484D01*
Y3247D02*
Y3278D01*
X2017Y3247D02*
X2428D01*
X2017D02*
Y3278D01*
Y3453D02*
Y3484D01*
X2428D01*
X6247Y3278D02*
Y3453D01*
X5984Y3278D02*
X6247D01*
X5310D02*
X5573D01*
X5310D02*
Y3453D01*
X5573D01*
X5984D02*
X6247D01*
X5984D02*
Y3484D01*
Y3247D02*
Y3278D01*
X5573Y3247D02*
X5984D01*
X5573D02*
Y3278D01*
Y3453D02*
Y3484D01*
X5984D01*
X4469Y3278D02*
Y3453D01*
X4206Y3278D02*
X4469D01*
X3532D02*
X3795D01*
X3532D02*
Y3453D01*
X3795D01*
X4206D02*
X4469D01*
X4206D02*
Y3484D01*
Y3247D02*
Y3278D01*
X3795Y3247D02*
X4206D01*
X3795D02*
Y3278D01*
Y3453D02*
Y3484D01*
X4206D01*
D53*
X4372Y1968D02*
G03*
X4372Y1968I-625J0D01*
G01*
X5851Y1189D02*
Y2299D01*
X6721D01*
Y1189D02*
Y2299D01*
X5851Y1189D02*
X6721D01*
X1044Y348D02*
Y1427D01*
X-486Y348D02*
X1044D01*
X-486D02*
Y1427D01*
X1044D01*
X137Y3823D02*
X1006D01*
X137Y2713D02*
Y3823D01*
Y2713D02*
X1006D01*
Y3823D01*
Y1507D02*
Y2617D01*
X137Y1507D02*
X1006D01*
X137D02*
Y2617D01*
X1006D01*
M02*
